<svg xmlns="http://www.w3.org/2000/svg" viewBox="0 0 28.35 29.65"><circle cx="3.92" cy="3.93" r="3.3" fill="none" stroke="green" stroke-linecap="round" stroke-linejoin="round" stroke-width="1.25"/><path d="M23.53,29a1.32,1.32,0,0,1-1.3-1.29V20c0-4.3-1.3-5.7-3.2-5.7s-3.9,1.2-3.9,5l-.3,8.3a1.33,1.33,0,0,1-1.31,1.3h-2.8a1.32,1.32,0,0,1-1.3-1.3V11.12a1.32,1.32,0,0,1,1.3-1.3h2.8a1.33,1.33,0,0,1,1.31,1.3v2.2c1.29-4,3.7-4.3,6.1-4.3s6.8,1.3,6.8,6.5v12.1" fill="none" stroke="green" stroke-linecap="round" stroke-linejoin="round" stroke-width="1.25"/><path d="M5.33,29H2.53a1.32,1.32,0,0,1-1.3-1.29V11.12a1.32,1.32,0,0,1,1.3-1.3h2.8a1.33,1.33,0,0,1,1.3,1.3v16.5A1.35,1.35,0,0,1,5.33,29Z" fill="none" stroke="green" stroke-linecap="round" stroke-linejoin="round" stroke-width="1.25"/></svg>