<?xml version="1.0" encoding="UTF-8"?>
<svg xmlns="http://www.w3.org/2000/svg" xmlns:xlink="http://www.w3.org/1999/xlink" width="100" height="100" viewBox="0 0 100 100" version="1.2">
<defs>
<clipPath id="clip1">
  <path d="M 172.707031 172.707031 L 636.957031 172.707031 L 636.957031 636.957031 L 172.707031 636.957031 Z M 172.707031 172.707031 "/>
</clipPath>
</defs>
<g id="surface1">
<g clip-path="url(#clip1)" clip-rule="nonzero">
<path style=" stroke:none;fill-rule:nonzero;fill:rgb(100%,100%,100%);fill-opacity:1;" d="M 404.921875 172.78125 C 276.714844 172.78125 172.78125 276.714844 172.78125 404.921875 C 172.78125 533.132812 276.714844 637.066406 404.921875 637.066406 C 533.132812 637.066406 637.066406 533.132812 637.066406 404.921875 C 637.066406 276.714844 533.132812 172.78125 404.921875 172.78125 Z M 538.339844 388.035156 C 537.320312 363.339844 534.0625 339.71875 528.929688 317.75 C 565.492188 335.039062 590.96875 359.828125 598.339844 388.035156 Z M 517.210938 388.035156 L 419.464844 388.035156 L 419.464844 292.527344 C 449.582031 293.800781 477.808594 299.007812 502.597656 307.25 C 510.640625 331.402344 515.773438 358.789062 517.210938 388.035156 Z M 419.464844 271.417969 L 419.464844 210.941406 C 448.636719 217.457031 474.316406 243.335938 492.078125 280.917969 C 469.4375 275.621094 445.015625 272.328125 419.464844 271.417969 Z M 390.382812 210.941406 L 390.382812 271.417969 C 364.832031 272.328125 340.410156 275.621094 317.769531 280.917969 C 335.53125 243.335938 361.210938 217.457031 390.382812 210.941406 Z M 390.382812 292.527344 L 390.382812 388.035156 L 292.636719 388.035156 C 294.074219 358.789062 299.226562 331.402344 307.25 307.25 C 332.039062 299.007812 360.265625 293.800781 390.382812 292.527344 Z M 271.507812 388.035156 L 211.507812 388.035156 C 218.859375 359.828125 244.355469 335.058594 280.917969 317.75 C 275.785156 339.71875 272.527344 363.339844 271.507812 388.035156 Z M 271.34375 417.117188 C 272.128906 443.523438 275.476562 468.746094 280.917969 492.078125 C 242.335938 473.824219 216.09375 447.253906 210.46875 417.117188 Z M 292.4375 417.117188 L 390.382812 417.117188 L 390.382812 517.320312 C 360.265625 516.046875 332.039062 510.839844 307.25 502.597656 C 298.789062 477.171875 293.527344 448.128906 292.4375 417.117188 Z M 390.382812 538.429688 L 390.382812 598.902344 C 361.210938 592.390625 335.53125 566.511719 317.769531 528.929688 C 340.410156 534.226562 364.832031 537.519531 390.382812 538.429688 Z M 419.464844 598.902344 L 419.464844 538.429688 C 445.015625 537.519531 469.4375 534.226562 492.078125 528.929688 C 474.316406 566.511719 448.636719 592.390625 419.464844 598.902344 Z M 419.464844 517.320312 L 419.464844 417.117188 L 517.410156 417.117188 C 516.316406 448.109375 511.058594 477.15625 502.597656 502.597656 C 477.808594 510.839844 449.582031 516.046875 419.464844 517.320312 Z M 538.503906 417.117188 L 599.378906 417.117188 C 593.753906 447.253906 567.511719 473.84375 528.929688 492.078125 C 534.390625 468.746094 537.71875 443.523438 538.503906 417.117188 Z M 579.59375 316.824219 C 562.835938 305.796875 542.996094 296.386719 520.851562 288.996094 C 513.480469 266.851562 504.050781 246.996094 493.023438 230.253906 C 530.3125 249.105469 560.742188 279.535156 579.59375 316.824219 Z M 316.824219 230.253906 C 305.796875 247.011719 296.386719 266.851562 288.996094 288.996094 C 266.851562 296.367188 246.996094 305.796875 230.253906 316.824219 C 249.105469 279.535156 279.535156 249.105469 316.824219 230.253906 Z M 230.253906 493.023438 C 247.011719 504.050781 266.851562 513.460938 288.996094 520.851562 C 296.367188 542.996094 305.796875 562.851562 316.824219 579.59375 C 279.535156 560.742188 249.105469 530.3125 230.253906 493.023438 Z M 493.023438 579.59375 C 504.050781 562.835938 513.460938 542.996094 520.851562 520.851562 C 542.996094 513.480469 562.851562 504.050781 579.59375 493.023438 C 560.742188 530.3125 530.3125 560.742188 493.023438 579.59375 Z M 493.023438 579.59375 "/>
</g>
</g>
</svg>
